PathFileType        4      (X/Y/Z)      C:\Users\pc\Desktop\IMUTRC\Sujet_07\Sujet_07_velo_80.trc         
DataRate	CameraRate	NumFrames	NumMarkers	Units	OrigDataRate	OrigDataStartFrame	OrigNumFrames
60.0	60.0	4	64	mm	60.0	1	936
Frame#	Time	pHipOrigin			pRightASI			pLeftASI			pRightCSI			pLeftCSI			pRightIschialTub			pLeftIschialTub			pSacrum			pL5SpinalProcess			pL3SpinalProcess			pT12SpinalProcess			pIJ			pT4SpinalProcess			pT8SpinalProcess			pPX			pC7SpinalProcess			pTopOfHead			pRightAuricularis			pLeftAuricularis			pBackOfHead			pRightAcromion			pLeftAcromion			pRightArmLatEpicondyle			pRightArmMedEpicondyle			pLeftArmLatEpicondyle			pLeftArmMedEpicondyle			pRightUlnarStyloid			pRightRadialStyloid			pRightOlecranon			pLeftUlnarStyloid			pLeftRadialStyloid			pLeftOlecranon			pRightTopOfHand			pRightPinky			pRightBallHand			pLeftTopOfHand			pLeftPinky			pLeftBallHand			pRightGreaterTrochanter			pRightKneeLatEpicondyle			pRightKneeMedEpicondyle			pRightPatella			pLeftGreaterTrochanter			pLeftKneeLatEpicondyle			pLeftKneeMedEpicondyle			pLeftPatella			pRightTibialTub			pRightLatMalleolus			pRightMedMalleolus			pLeftTibialTub			pLeftLatMalleolus			pLeftMedMalleolus			pRightHeelFoot			pRightFirstMetatarsal			pRightFifthMetatarsal			pRightPivotFoot			pRightHeelCenter			pRightToe			pLeftHeelFoot			pLeftFirstMetatarsal			pLeftFifthMetatarsal			pLeftPivotFoot			pLeftHeelCenter			pLeftToe			
		X1	Y1	Z1	X2	Y2	Z2	X3	Y3	Z3	X4	Y4	Z4	X5	Y5	Z5	X6	Y6	Z6	X7	Y7	Z7	X8	Y8	Z8	X9	Y9	Z9	X10	Y10	Z10	X11	Y11	Z11	X12	Y12	Z12	X13	Y13	Z13	X14	Y14	Z14	X15	Y15	Z15	X16	Y16	Z16	X17	Y17	Z17	X18	Y18	Z18	X19	Y19	Z19	X20	Y20	Z20	X21	Y21	Z21	X22	Y22	Z22	X23	Y23	Z23	X24	Y24	Z24	X25	Y25	Z25	X26	Y26	Z26	X27	Y27	Z27	X28	Y28	Z28	X29	Y29	Z29	X30	Y30	Z30	X31	Y31	Z31	X32	Y32	Z32	X33	Y33	Z33	X34	Y34	Z34	X35	Y35	Z35	X36	Y36	Z36	X37	Y37	Z37	X38	Y38	Z38	X39	Y39	Z39	X40	Y40	Z40	X41	Y41	Z41	X42	Y42	Z42	X43	Y43	Z43	X44	Y44	Z44	X45	Y45	Z45	X46	Y46	Z46	X47	Y47	Z47	X48	Y48	Z48	X49	Y49	Z49	X50	Y50	Z50	X51	Y51	Z51	X52	Y52	Z52	X53	Y53	Z53	X54	Y54	Z54	X55	Y55	Z55	X56	Y56	Z56	X57	Y57	Z57	X58	Y58	Z58	X59	Y59	Z59	X60	Y60	Z60	X61	Y61	Z61	X62	Y62	Z62	X63	Y63	Z63	X64	Y64	Z64	
1	0.0	0.0	1249.97763	7.653905517926474E-14	111.62760272781514	1335.44809	127.29950054831008	97.60195470943623	1300.6213	-154.49706447478	94.096349447269	1414.5324	92.91192195057452	82.5557536798026	1385.86898	-138.83233983055942	-73.8762301313167	1225.24986	65.72954405909144	-79.66011853829241	1210.91815	-50.193307354718044	-56.208022142219704	1297.42822	-3.041089856718932	21.636275729295587	1379.03729	-14.603788849709247	108.36995150565087	1465.10181	-28.494042021562596	189.97472463402707	1541.80987	-40.629475220041634	456.7207019000672	1520.57221	-79.37894055943586	363.4804450940783	1646.95859	-64.61501846069324	279.6022972394144	1606.8595	-52.84892473164095	344.4659393865212	1461.0919	-63.76020849439606	418.38524149503814	1671.46359	-70.90087540638062	693.8084575863518	1662.70119	-82.94697926055791	593.1533807227316	1638.34471	-12.27085209301704	591.5343504889138	1660.25069	-155.45696946905448	584.9231814027775	1705.02801	-75.24358871443785	434.2728086745432	1592.60205	113.36363103005283	398.1067093421587	1611.09219	-255.72834741467437	471.8534709325329	1312.05696	90.30181461712868	443.79849644048215	1311.61142	32.26057584240936	404.1759414351287	1315.32429	-265.94352576262617	365.8885446327224	1308.64111	-214.4793292113082	560.3439601704198	1069.38323	52.13101127048146	608.7295621139172	1093.44268	47.48325034954062	432.9817316756045	1303.88863	66.14430198869823	450.2756899073201	1057.05647	-247.47361233260736	500.4276726453288	1073.24462	-259.9333145351556	360.2821525903066	1308.41834	-235.8084333466941	752.0757547814037	1040.64555	148.50796157789657	673.3225391088541	1015.54649	101.49635238218221	618.6071970438143	1052.37825	56.95890479234169	589.747242880451	993.56625	-399.4908082926043	534.216291872556	983.76425	-322.91237975431187	502.646877919041	1031.95742	-268.0840308216502	45.96235552526692	1255.24992	169.30222499469372	439.7579247210283	1060.62084	104.01165135212939	429.65462256903425	1053.56637	19.03564400360299	451.60933715781346	1101.38824	52.89028287016374	-11.11824036732449	1210.8439	-175.59450279303067	165.7013677428957	805.10055	-211.55750781435012	189.5676950936121	800.86787	-129.18207937586155	219.5371856290725	825.37286	-178.41749966023357	463.8969636696561	1006.70984	61.01348944722202	212.11814989535597	698.68945	176.31448717373257	201.72862532342813	690.14983	112.18081159879682	228.26688165381896	761.80839	-184.1813167097265	90.87251195457617	371.80764	-206.99986771673622	108.07293569559273	367.5007	-143.8213955478908	135.33465179579542	638.31805	158.56454706503976	281.2299955425845	562.50107	117.35195910787479	288.1391750878866	573.63971	195.68210909679587	304.91767300688076	558.26839	155.03671822640928	173.95239060202763	625.32298	157.02332137922127	387.708949267635	517.05544	153.61850131931192	31.559093909152452	311.36198	-153.87007409148956	187.01919042276577	244.08462	-158.77789980262918	164.23936304542372	242.52522000000002	-234.86686139742423	195.6741494414964	233.9856	-201.54106856049714	68.80930824814784	298.96097	-164.77535791946033	275.74369181883844	194.10928	-224.68080409684293	
2	0.017	0.0	1249.97763	7.653905517926474E-14	111.81324772781514	1335.67087	126.97795397613895	96.62737469966193	1301.36387	-154.88824238180993	93.8019889215829	1414.75518	92.82770933680551	81.33122262354327	1386.5373	-138.93910982567226	-73.46319512642955	1224.80432	66.05374644532245	-79.7443224918074	1210.69538	-49.898941829031955	-56.39366214221971	1297.20545	-2.719551944801849	21.027648110639433	1379.1858	-14.44071489130713	107.66983545427868	1465.4731	-28.469525449391465	189.14598648968482	1542.25542	-40.67921864787052	455.9019163694939	1520.79498	-79.5944224199808	362.79027799622105	1647.25562	-64.75625398149218	278.8478277553262	1607.30505	-53.027285252439896	343.50858780946294	1461.46319	-63.884206922224955	417.6678970109499	1671.68636	-71.14353831341053	693.0884449676956	1663.29525	-82.59098082295476	592.3147022851284	1638.79026	-12.154838427875873	591.0642889167427	1660.47347	-155.38537894336838	584.1587543049203	1705.3993	-75.2562021422667	433.5826502369401	1593.0476	113.22240050925389	397.2879288115854	1611.90902	-255.94383793547334	470.6044146438484	1312.27973	89.49492357064366	442.4480077655667	1311.9827	31.480870842409356	403.44331038864374	1315.76984	-264.8230915669117	364.77006962783526	1309.30943	-213.58167367584778	558.6891620163033	1069.53175	51.43284574968255	607.0376339598006	1093.44268	46.849395875226755	431.6955540471741	1304.18566	65.40172698869824	448.2496067532036	1057.3535	-247.5286933693181	498.37440344472714	1073.39314	-260.0898279580973	359.3194720646205	1309.0124	-234.73508176474868	750.3738826737722	1040.79407	148.03985053629864	671.5934722944835	1015.69501	100.92680395435332	616.9795712759287	1052.4525	56.362175318027774	587.3452497214473	993.86328	-399.93439410177706	531.8786147600374	983.98703	-323.31884422373867	500.56642767195444	1032.10593	-268.3419852910769	46.36810605095301	1254.21032	169.19350446900762	438.0342005155395	1056.01687	102.24474925427218	427.7651462705754	1049.40794	17.258792952230785	450.2714705709809	1096.85853	51.34615577230654	-11.892611418696688	1210.69538	-175.44137278814352	165.5972708823508	805.1748	-210.93164676297792	189.86934009849926	801.38767	-128.6649438501755	219.55442272204255	825.74415	-178.1503151810325	464.3750236647689	1003.29399	59.145865246620424	225.08156852679434	685.84289	175.39588746429627	214.6277329083815	677.00624	111.22508188936055	226.28253350458954	759.95195	-183.26908489535592	70.57963806138974	376.56012	-200.36647910214924	87.91862418863728	372.25319	-137.27950402627388	153.26851778195194	619.82792	156.31412000088537	305.20499599109064	556.78324	115.33106021957548	310.60255843364837	567.55059	193.90316783203988	328.947040548357	554.10997	153.218692770826	192.8064781652424	610.02592	154.9612037893808	414.1502489216299	520.54555	152.07832690043938	9.865987913221637	318.63922	-147.18765233256033	163.4286060451804	247.12918	-152.07630908041068	140.54734628160736	246.16384	-228.13808462872075	171.71494819847896	236.73313	-194.79505469882352	46.72039201979187	305.27286	-158.14997272781508	250.6242619057927	194.70334	-218.0044352302822	
3	0.033	0.0	1249.97763	7.653905517926474E-14	112.03602272781515	1335.89364	126.59209635748279	95.67997207611862	1302.10645	-155.17799290260888	93.50762339589683	1414.97795	92.74350538329054	80.10667790702989	1387.20562	-139.04587616053107	-73.0773375077734	1224.28452	66.27652144532244	-79.76422405909136	1210.47261	-49.56745130334586	-56.61643714221971	1296.90842	-2.3336943261456917	20.45614549198327	1379.33432	-14.341943319136004	106.90540835642145	1465.84438	-28.48213887722034	188.41868939182763	1542.70097	-40.75614312218443	455.0460058389207	1521.01776	-79.7456018942947	362.1372408983638	1647.55265	-64.96180054877617	278.15766065746897	1607.75059	-53.16852077323884	342.6155472788897	1461.83447	-63.97107535005383	416.9777299130927	1671.90913	-71.2847738342095	692.3684360092935	1663.81506	-82.23496872509749	591.4760201872712	1639.2358	-12.038838422988716	590.5570973445715	1660.7705	-155.24947737119732	583.2928948208321	1705.77058	-75.24162952361057	432.8281720925978	1593.49314	113.04403498845497	396.4963293274973	1612.65159	-256.05788740978727	469.2910559689329	1312.42825	88.65090752415861	441.09751909065113	1312.35399	30.70116584240935	402.64637695592774	1316.21538	-263.73978237119735	363.6244085764631	1309.90349	-212.7854505266184	556.9972338621867	1069.68026	50.79899127536863	605.3828308056841	1093.51694	46.15123901468181	430.38219537225854	1304.48269	64.55771094221322	446.159207552602	1057.65053	-247.6208957457748	496.3211342441256	1073.4674	-260.24634138103903	358.3939165389344	1309.68072	-233.7260325690343	748.6448245196557	1040.86832	147.47030710846983	669.928730186852	1015.76927	100.39438186627038	615.2876431218123	1052.52676	55.72832084371385	584.9803829021896	994.23457	-400.4423046176889	529.6052350337498	984.28406	-323.68817503291143	498.3845450386368	1032.3287	-268.5727537140186	46.773856576639105	1253.24497	169.08478394332153	436.3747736962818	1051.4129	100.51498081666901	425.81136758588565	1045.32378	15.444816900858605	448.86928427740924	1092.40308	49.764893674449276	-12.666987470068861	1210.54687	-175.28823412300235	165.49316536155186	805.32332	-210.3057907116057	190.23529614987143	801.83321	-128.11067832448938	219.6359622012436	826.04118	-177.84600570183142	464.7887726133967	1000.02666	57.24111104601884	238.28498559094876	673.5904	174.35861827565896	227.85833601902092	664.45671	110.28924508695421	224.13245192264412	758.16976	-182.3668143550084	50.48963760091934	382.27796	-193.78745758053233	67.99437082113695	378.04528	-130.690524890888	171.66250138676457	601.70907	154.1578458437609	328.59855852767964	552.03076	113.57468133616332	332.55876386749316	562.20404	192.260124479201	352.20203203846097	550.76838	151.5538059803839	211.89062020765823	595.24866	152.94616015305525	440.0843706637077	524.33268	150.6740503934839	-11.827113082709175	325.99072	-140.50523923388513	139.73659794161807	250.248	-145.34752731170718	116.79101347130594	249.80246	-221.44642919976317	147.75575195546156	239.62917	-188.04904949740398	24.658665498174976	311.58475	-151.4231414896848	225.46770199274692	195.37166	-211.26375531723642	
4	0.05	0.0	1249.97763	7.653905517926474E-14	112.35027616053115	1335.81938	126.3448134455657	94.7325694525753	1302.99754	-155.46774342340782	93.43336339589683	1414.97795	92.87212747626062	78.93651394374064	1387.94819	-138.9497727229279	-72.62717750288624	1223.83897	66.53642144532245	-79.87560905909136	1210.32409	-49.3745268241448	-56.77489609573467	1296.7599	-1.910715367743569	19.97613496629718	1379.55709	-14.104600700479846	106.29678939801934	1466.21567	-28.319059918818215	187.74575438694046	1543.14651	-40.630185503528274	454.2543976945784	1521.24053	-79.85965636860858	361.5385658934767	1647.92394	-64.96446502309006	277.5218556525818	1608.19614	-53.1068742010677	341.78681413454746	1462.20576	-64.02082743813673	416.3518738617205	1672.20616	-71.3888793550084	691.7226733906374	1664.48338	-82.00757505995632	590.674468089414	1639.82986	-11.987149464586606	590.0227247259154	1661.14179	-155.2150168455112	582.5284677229748	1706.21613	-75.25424295143942	432.2666270877106	1593.93869	112.977059467656	395.63046618315497	1613.39417	-256.0433284513851	468.2249838661885	1312.65102	88.12115857064367	439.93001460167585	1312.72528	30.198602935379423	401.9979548629576	1316.73519	-262.913722361423	362.691573571576	1310.49755	-212.20933290307508	555.6540246664722	1069.82878	50.45221784753975	604.0767516099696	1093.66545	45.74015454036792	429.21468722302916	1304.77972	64.05513437492922	444.5660423104025	1058.02182	-247.6832526014325	494.8022376621801	1073.76443	-260.4373153296669	357.6168760132483	1310.27478	-232.97421889900588	747.2373042774561	1041.01684	147.0864036806409	668.5212186049066	1015.91778	100.0104834384415	613.9444475863518	1052.67528	55.381543755630936	583.1671207945582	994.60586	-400.71748251983166	527.8934053123492	984.58109	-323.99053898153926	496.7642074102064	1032.62573	-268.73654661616143	46.93960866960917	1251.75982	169.0947328968365	433.62405791862193	1044.72972	99.78430030075722	423.16208419445684	1039.45743	14.686950338461806	446.8630890303226	1085.86841	49.37832577230652	-13.127100088725015	1210.91815	-175.3823956902863	168.28901456215345	807.17976	-211.43546357734851	193.37257982967407	803.83817	-129.38619305566422	222.34032296912915	828.34317	-179.11423595380523	464.2869149898534	994.90289	56.179653948161594	251.34523026398497	659.25868	172.38123094267937	241.12144912477322	649.97649	108.25749932125862	224.5408669226441	758.31828	-183.0742098855816	32.54972738264838	391.33738	-188.11070159926297	50.19303164935103	387.1047	-125.10526100258869	189.78466818698098	582.77339	150.98719220254821	350.13444081718217	545.1248	111.17449902492231	352.82302748696725	554.62977	189.98323031230223	373.5622182814785	545.19906	149.30941814834395	230.36152328678483	579.20903	150.0625975583276	463.6907455865277	524.77823	148.69756964463969	-31.268700110463563	336.98084	-134.75228272204254	117.98184171326211	256.78267	-139.30092421791915	95.036265903204	256.78267	-215.39982110597515	125.66950886167353	245.79255	-182.0223343106459	4.784155558503507	321.46101	-145.66290049864114	202.13702627541562	199.1588	-205.0123195999051	
